<?xml version="1.0" encoding="utf-8"?>
<!-- Generator: Adobe Illustrator 26.0.1, SVG Export Plug-In . SVG Version: 6.00 Build 0)  -->
<svg version="1.1" id="Capa_1" xmlns="http://www.w3.org/2000/svg" xmlns:xlink="http://www.w3.org/1999/xlink" x="0px" y="0px"
	 viewBox="0 0 335.8 110.5" style="enable-background:new 0 0 335.8 110.5;" xml:space="preserve">
<style type="text/css">
	.st0{display:none;}
	.st1{display:inline;fill:#4E4C4C;}
	.st2{fill:#4E4C4C;}
	.st3{font-family:'Poppins-Regular';}
	.st4{font-size:21.03px;}
</style>
<g class="st0">
	<path class="st1" d="M54.9,9.8L35.7,64H19.2L0,9.8h14l13.4,40.9L40.9,9.8H54.9z"/>
	<path class="st1" d="M61.4,14.4c-1.5-1.3-2.3-3.2-2.2-5.1c-0.1-1.9,0.7-3.8,2.2-5.1c1.6-1.4,3.6-2.1,5.7-2c2.1-0.1,4.1,0.7,5.6,2
		c2.8,2.6,3,7.1,0.3,9.9c-0.1,0.1-0.2,0.2-0.3,0.3c-1.5,1.4-3.5,2.1-5.6,2C65,16.5,62.9,15.8,61.4,14.4z M73.6,20.9v43H60.4v-43
		L73.6,20.9z"/>
	<path class="st1" d="M96.4,6.9V64H83.2V6.9H96.4z"/>
	<path class="st1" d="M119.1,6.9V64h-13.2V6.9H119.1z"/>
	<path class="st1" d="M128.6,30.7c1.5-3.1,3.9-5.8,6.8-7.7c2.9-1.8,6.2-2.7,9.6-2.7c2.8-0.1,5.5,0.6,8,1.9c2.2,1.1,4,2.8,5.3,4.9V21
		h13.2v43h-13.2v-6.1c-1.4,2-3.2,3.7-5.4,4.9c-2.5,1.3-5.2,1.9-8,1.9c-7.1,0.1-13.5-4.1-16.4-10.5c-1.7-3.7-2.6-7.7-2.5-11.7
		C126,38.4,126.9,34.4,128.6,30.7z M155.6,34.7c-3.5-3.7-9.4-3.9-13.1-0.3c-0.1,0.1-0.2,0.2-0.3,0.2c-1.9,2.1-2.9,4.9-2.7,7.8
		c-0.2,2.9,0.8,5.7,2.7,7.8c1.7,1.9,4.2,2.9,6.7,2.9c2.5,0,5-1,6.7-2.9c1.9-2.1,2.9-4.9,2.7-7.8C158.5,39.6,157.5,36.8,155.6,34.7z"
		/>
	<path class="st1" d="M258.8,9.8V64h-13.2V31.5L233.5,64h-10.6l-12.2-32.6V64h-13.2V9.8h15.6l15.2,37.5l15-37.5L258.8,9.8z"/>
	<path class="st1" d="M284.8,10.2L266.2,18V8.9L284.8,0V10.2z M282.4,20.9v43h-13.2v-43L282.4,20.9z"/>
	<path class="st1" d="M292.9,30.7c1.5-3.1,3.9-5.8,6.8-7.7c2.9-1.8,6.2-2.7,9.6-2.7c2.8-0.1,5.5,0.6,8,1.9c2.2,1.1,4,2.8,5.3,4.9V21
		h13.2v43h-13.2v-6.1c-1.4,2-3.2,3.7-5.4,4.9c-2.5,1.3-5.2,1.9-8,1.9c-7.1,0.1-13.5-4.1-16.4-10.5c-1.7-3.7-2.6-7.7-2.5-11.7
		C290.3,38.4,291.2,34.4,292.9,30.7z M319.9,34.7c-1.7-1.9-4.2-2.9-6.7-2.9c-2.5,0-5,1-6.7,2.8c-1.9,2.1-2.9,4.9-2.7,7.8
		c-0.2,2.9,0.8,5.7,2.7,7.8c1.7,1.9,4.2,2.9,6.7,2.9c2.5,0,5-1,6.7-2.9c1.9-2.1,2.9-4.9,2.7-7.8C322.8,39.6,321.8,36.8,319.9,34.7z"
		/>
</g>
<text transform="matrix(1 0 0 1 13.45 98.47)" class="st2 st3 st4">Salón y Banquetes</text>
</svg>
