<?xml version="1.0" encoding="utf-8"?>
<!-- Generator: Adobe Illustrator 25.0.0, SVG Export Plug-In . SVG Version: 6.00 Build 0)  -->
<svg version="1.1" id="Capa_1" xmlns="http://www.w3.org/2000/svg" xmlns:xlink="http://www.w3.org/1999/xlink" x="0px" y="0px"
	 viewBox="0 0 341.3 112.5" style="enable-background:new 0 0 341.3 112.5;" xml:space="preserve">
<style type="text/css">
	.st0{enable-background:new    ;}
	.st1{fill:#4E4C4C;}
</style>
<g class="st0">
	<path class="st1" d="M55.6,30.6L36.4,84.8H19.9L0.7,30.6h14l13.4,40.9l13.5-40.9H55.6z"/>
	<path class="st1" d="M62.1,35.2c-1.5-1.4-2.2-3-2.2-5.1c0-2.1,0.7-3.8,2.2-5.1c1.5-1.4,3.4-2,5.7-2c2.3,0,4.1,0.7,5.6,2
		c1.5,1.4,2.2,3.1,2.2,5.1c0,2-0.7,3.7-2.2,5.1c-1.5,1.4-3.3,2-5.6,2C65.4,37.2,63.5,36.6,62.1,35.2z M74.3,41.7v43H61.1v-43H74.3z"
		/>
	<path class="st1" d="M97.1,27.7v57.1H83.9V27.7H97.1z"/>
	<path class="st1" d="M119.8,27.7v57.1h-13.2V27.7H119.8z"/>
	<path class="st1" d="M129.3,51.5c1.7-3.3,3.9-5.9,6.8-7.7c2.9-1.8,6.1-2.7,9.6-2.7c3,0,5.7,0.6,8,1.9c2.3,1.2,4.1,2.9,5.3,4.9v-6.1
		h13.2v43H159v-6.1c-1.3,2-3.1,3.6-5.4,4.9c-2.3,1.2-5,1.9-8,1.9c-3.5,0-6.7-0.9-9.6-2.7c-2.9-1.8-5.2-4.4-6.8-7.8
		c-1.7-3.4-2.5-7.3-2.5-11.7C126.8,58.7,127.6,54.9,129.3,51.5z M156.3,55.5c-1.8-1.9-4.1-2.9-6.7-2.9s-4.8,0.9-6.7,2.8
		c-1.8,1.9-2.7,4.5-2.7,7.8c0,3.3,0.9,5.9,2.7,7.8c1.8,1.9,4.1,2.9,6.7,2.9s4.8-1,6.7-2.9c1.8-1.9,2.7-4.5,2.7-7.8
		S158.1,57.4,156.3,55.5z"/>
	<path class="st1" d="M259.5,30.6v54.2h-13.2V52.3l-12.1,32.5h-10.6l-12.2-32.6v32.6h-13.2V30.6h15.6l15.2,37.5l15-37.5H259.5z"/>
	<path class="st1" d="M285.5,31l-18.6,7.8v-9.1l18.6-8.9V31z M283.1,41.7v43h-13.2v-43H283.1z"/>
	<path class="st1" d="M293.6,51.5c1.7-3.3,3.9-5.9,6.8-7.7c2.9-1.8,6.1-2.7,9.6-2.7c3,0,5.7,0.6,8,1.9c2.3,1.2,4.1,2.9,5.3,4.9v-6.1
		h13.2v43h-13.2v-6.1c-1.3,2-3.1,3.6-5.4,4.9c-2.3,1.2-5,1.9-8,1.9c-3.5,0-6.7-0.9-9.6-2.7c-2.9-1.8-5.2-4.4-6.8-7.8
		c-1.7-3.4-2.5-7.3-2.5-11.7C291.1,58.7,291.9,54.9,293.6,51.5z M320.6,55.5c-1.8-1.9-4-2.9-6.7-2.9c-2.6,0-4.8,0.9-6.7,2.8
		c-1.8,1.9-2.7,4.5-2.7,7.8c0,3.3,0.9,5.9,2.7,7.8c1.8,1.9,4,2.9,6.7,2.9c2.6,0,4.8-1,6.7-2.9c1.8-1.9,2.7-4.5,2.7-7.8
		S322.4,57.4,320.6,55.5z"/>
</g>
</svg>
