<?xml version="1.0" encoding="utf-8"?>
<!-- Generator: Adobe Illustrator 26.0.1, SVG Export Plug-In . SVG Version: 6.00 Build 0)  -->
<svg version="1.1" id="Capa_1" xmlns="http://www.w3.org/2000/svg" xmlns:xlink="http://www.w3.org/1999/xlink" x="0px" y="0px"
	 viewBox="0 0 335.8 110.5" style="enable-background:new 0 0 335.8 110.5;" xml:space="preserve">
<style type="text/css">
	.st0{fill:#4E4C4C;}
	.st1{enable-background:new    ;}
</style>
<g>
	<path class="st0" d="M54.9,9.8L35.7,64H19.2L0,9.8h14l13.4,40.9L40.9,9.8H54.9z"/>
	<path class="st0" d="M61.4,14.4c-1.5-1.3-2.3-3.2-2.2-5.1c-0.1-1.9,0.7-3.8,2.2-5.1c1.6-1.4,3.6-2.1,5.7-2c2.1-0.1,4.1,0.7,5.6,2
		c2.8,2.6,3,7.1,0.3,9.9c-0.1,0.1-0.2,0.2-0.3,0.3c-1.5,1.4-3.5,2.1-5.6,2C65,16.5,62.9,15.8,61.4,14.4z M73.6,20.9v43H60.4v-43
		L73.6,20.9z"/>
	<path class="st0" d="M96.4,6.9V64H83.2V6.9H96.4z"/>
	<path class="st0" d="M119.1,6.9V64h-13.2V6.9H119.1z"/>
	<path class="st0" d="M128.6,30.7c1.5-3.1,3.9-5.8,6.8-7.7c2.9-1.8,6.2-2.7,9.6-2.7c2.8-0.1,5.5,0.6,8,1.9c2.2,1.1,4,2.8,5.3,4.9V21
		h13.2v43h-13.2v-6.1c-1.4,2-3.2,3.7-5.4,4.9c-2.5,1.3-5.2,1.9-8,1.9c-7.1,0.1-13.5-4.1-16.4-10.5c-1.7-3.7-2.6-7.7-2.5-11.7
		C126,38.4,126.9,34.4,128.6,30.7z M155.6,34.7c-3.5-3.7-9.4-3.9-13.1-0.3c-0.1,0.1-0.2,0.2-0.3,0.2c-1.9,2.1-2.9,4.9-2.7,7.8
		c-0.2,2.9,0.8,5.7,2.7,7.8c1.7,1.9,4.2,2.9,6.7,2.9c2.5,0,5-1,6.7-2.9c1.9-2.1,2.9-4.9,2.7-7.8C158.5,39.6,157.5,36.8,155.6,34.7z"
		/>
	<path class="st0" d="M258.8,9.8V64h-13.2V31.5L233.5,64h-10.6l-12.2-32.6V64h-13.2V9.8h15.6l15.2,37.5l15-37.5L258.8,9.8z"/>
	<path class="st0" d="M284.8,10.2L266.2,18V8.9L284.8,0V10.2z M282.4,20.9v43h-13.2v-43L282.4,20.9z"/>
	<path class="st0" d="M292.9,30.7c1.5-3.1,3.9-5.8,6.8-7.7c2.9-1.8,6.2-2.7,9.6-2.7c2.8-0.1,5.5,0.6,8,1.9c2.2,1.1,4,2.8,5.3,4.9V21
		h13.2v43h-13.2v-6.1c-1.4,2-3.2,3.7-5.4,4.9c-2.5,1.3-5.2,1.9-8,1.9c-7.1,0.1-13.5-4.1-16.4-10.5c-1.7-3.7-2.6-7.7-2.5-11.7
		C290.3,38.4,291.2,34.4,292.9,30.7z M319.9,34.7c-1.7-1.9-4.2-2.9-6.7-2.9c-2.5,0-5,1-6.7,2.8c-1.9,2.1-2.9,4.9-2.7,7.8
		c-0.2,2.9,0.8,5.7,2.7,7.8c1.7,1.9,4.2,2.9,6.7,2.9c2.5,0,5-1,6.7-2.9c1.9-2.1,2.9-4.9,2.7-7.8C322.8,39.6,321.8,36.8,319.9,34.7z"
		/>
</g>
<g class="st1">
	<path class="st0" d="M17.1,98.1c-0.8-0.3-1.4-0.8-1.8-1.4c-0.4-0.6-0.7-1.3-0.7-2.1h2c0.1,0.7,0.4,1.3,0.9,1.7
		c0.5,0.5,1.2,0.7,2.2,0.7c0.9,0,1.6-0.2,2.2-0.7c0.5-0.5,0.8-1,0.8-1.8c0-0.6-0.2-1-0.5-1.4c-0.3-0.4-0.7-0.6-1.2-0.8
		c-0.5-0.2-1.1-0.4-1.9-0.6c-1-0.3-1.7-0.5-2.3-0.8c-0.6-0.3-1.1-0.6-1.5-1.2c-0.4-0.5-0.6-1.3-0.6-2.2c0-0.8,0.2-1.5,0.6-2.1
		s1-1.1,1.7-1.4c0.7-0.3,1.6-0.5,2.5-0.5c1.4,0,2.5,0.3,3.4,1c0.9,0.7,1.4,1.6,1.5,2.7h-2.1c-0.1-0.6-0.4-1.1-0.9-1.5
		s-1.2-0.6-2.1-0.6c-0.8,0-1.5,0.2-2,0.6c-0.5,0.4-0.8,1-0.8,1.7c0,0.5,0.2,1,0.5,1.3c0.3,0.3,0.7,0.6,1.1,0.8
		c0.4,0.2,1.1,0.4,1.9,0.6c1,0.3,1.7,0.5,2.3,0.8c0.6,0.3,1.1,0.7,1.5,1.2c0.4,0.5,0.6,1.3,0.6,2.2c0,0.7-0.2,1.4-0.6,2
		s-0.9,1.1-1.7,1.5s-1.6,0.6-2.6,0.6C18.8,98.6,17.9,98.4,17.1,98.1z"/>
	<path class="st0" d="M27.4,89.6c0.5-0.9,1.1-1.6,2-2.1c0.8-0.5,1.8-0.7,2.8-0.7c1,0,1.9,0.2,2.6,0.7c0.7,0.4,1.3,1,1.7,1.6v-2.1
		h1.9v11.5h-1.9v-2.1c-0.4,0.7-0.9,1.2-1.7,1.7c-0.8,0.4-1.6,0.7-2.6,0.7c-1,0-1.9-0.3-2.8-0.8c-0.8-0.5-1.5-1.2-2-2.1
		c-0.5-0.9-0.7-1.9-0.7-3.1C26.7,91.5,26.9,90.5,27.4,89.6z M35.9,90.4c-0.4-0.6-0.8-1.1-1.4-1.5s-1.3-0.5-2-0.5
		c-0.7,0-1.4,0.2-2,0.5c-0.6,0.3-1.1,0.8-1.4,1.5c-0.4,0.6-0.5,1.4-0.5,2.3c0,0.9,0.2,1.7,0.5,2.3c0.4,0.7,0.8,1.2,1.4,1.5
		c0.6,0.3,1.2,0.5,2,0.5c0.7,0,1.4-0.2,2-0.5c0.6-0.3,1.1-0.8,1.4-1.5c0.4-0.7,0.5-1.4,0.5-2.3S36.3,91.1,35.9,90.4z"/>
	<path class="st0" d="M43.5,82.9v15.6h-1.9V82.9H43.5z"/>
	<path class="st0" d="M48.9,97.9c-0.9-0.5-1.6-1.2-2.1-2.1c-0.5-0.9-0.7-2-0.7-3.1c0-1.2,0.3-2.2,0.8-3.1s1.2-1.6,2.1-2.1
		c0.9-0.5,1.9-0.7,3-0.7c1.1,0,2.1,0.2,3,0.7s1.6,1.2,2.1,2.1c0.5,0.9,0.8,1.9,0.8,3.1s-0.3,2.2-0.8,3.1c-0.5,0.9-1.2,1.6-2.1,2.1
		c-0.9,0.5-1.9,0.7-3,0.7C50.8,98.7,49.8,98.4,48.9,97.9z M53.8,96.5c0.6-0.3,1.1-0.8,1.5-1.5c0.4-0.6,0.6-1.4,0.6-2.4
		c0-0.9-0.2-1.7-0.5-2.4c-0.4-0.6-0.8-1.1-1.4-1.4c-0.6-0.3-1.2-0.5-1.9-0.5c-0.7,0-1.3,0.2-1.9,0.5c-0.6,0.3-1,0.8-1.4,1.4
		C48.2,91,48,91.8,48,92.7c0,0.9,0.2,1.7,0.5,2.4c0.3,0.6,0.8,1.1,1.4,1.4c0.6,0.3,1.2,0.5,1.9,0.5C52.5,97,53.2,96.8,53.8,96.5z
		 M54,83.5l-4.5,2.4v-1.4l4.5-2.6V83.5z"/>
	<path class="st0" d="M69.3,88c0.9,0.8,1.3,2.1,1.3,3.7v6.8h-1.9V92c0-1.1-0.3-2-0.9-2.6c-0.6-0.6-1.4-0.9-2.4-0.9
		c-1,0-1.8,0.3-2.4,0.9c-0.6,0.6-0.9,1.5-0.9,2.8v6.4h-1.9V86.9h1.9v1.6c0.4-0.6,0.9-1,1.5-1.4s1.4-0.5,2.2-0.5
		C67.3,86.7,68.4,87.2,69.3,88z"/>
	<path class="st0" d="M89.3,86.9l-6.9,17h-2l2.3-5.6L78,86.9h2.1l3.6,9.3l3.6-9.3H89.3z"/>
	<path class="st0" d="M105.6,91.6c0.4,0.4,0.8,0.8,1.1,1.3s0.4,1.1,0.4,1.7c0,0.7-0.2,1.4-0.6,2c-0.4,0.6-0.9,1.1-1.7,1.4
		c-0.7,0.3-1.6,0.5-2.6,0.5h-5.5V83.8h5.3c1,0,1.8,0.2,2.5,0.5c0.7,0.3,1.2,0.8,1.6,1.3s0.5,1.2,0.5,1.9c0,0.9-0.2,1.6-0.7,2.2
		c-0.5,0.6-1.1,1-1.9,1.2C104.7,91,105.2,91.2,105.6,91.6z M98.7,90.1h3.2c0.9,0,1.6-0.2,2.1-0.6c0.5-0.4,0.7-1,0.7-1.7
		s-0.2-1.3-0.7-1.7c-0.5-0.4-1.2-0.6-2.1-0.6h-3.2V90.1z M104.3,96.2c0.5-0.4,0.8-1.1,0.8-1.9c0-0.8-0.3-1.5-0.8-1.9
		c-0.6-0.5-1.3-0.7-2.2-0.7h-3.3v5.2h3.4C103,96.9,103.8,96.7,104.3,96.2z"/>
	<path class="st0" d="M109.7,89.6c0.5-0.9,1.1-1.6,2-2.1c0.8-0.5,1.8-0.7,2.8-0.7c1,0,1.9,0.2,2.6,0.7c0.7,0.4,1.3,1,1.7,1.6v-2.1
		h1.9v11.5h-1.9v-2.1c-0.4,0.7-0.9,1.2-1.7,1.7c-0.8,0.4-1.6,0.7-2.6,0.7c-1,0-1.9-0.3-2.8-0.8c-0.8-0.5-1.5-1.2-2-2.1
		c-0.5-0.9-0.7-1.9-0.7-3.1C109,91.5,109.2,90.5,109.7,89.6z M118.2,90.4c-0.4-0.6-0.8-1.1-1.4-1.5s-1.3-0.5-2-0.5
		c-0.7,0-1.4,0.2-2,0.5c-0.6,0.3-1.1,0.8-1.4,1.5c-0.4,0.6-0.5,1.4-0.5,2.3c0,0.9,0.2,1.7,0.5,2.3c0.4,0.7,0.8,1.2,1.4,1.5
		c0.6,0.3,1.2,0.5,2,0.5c0.7,0,1.4-0.2,2-0.5c0.6-0.3,1.1-0.8,1.4-1.5c0.4-0.7,0.5-1.4,0.5-2.3S118.5,91.1,118.2,90.4z"/>
	<path class="st0" d="M132.9,88c0.9,0.8,1.3,2.1,1.3,3.7v6.8h-1.9V92c0-1.1-0.3-2-0.9-2.6c-0.6-0.6-1.4-0.9-2.4-0.9
		c-1,0-1.8,0.3-2.4,0.9c-0.6,0.6-0.9,1.5-0.9,2.8v6.4h-1.9V86.9h1.9v1.6c0.4-0.6,0.9-1,1.5-1.4s1.4-0.5,2.2-0.5
		C130.9,86.7,132.1,87.2,132.9,88z"/>
	<path class="st0" d="M137.4,89.6c0.5-0.9,1.1-1.6,2-2.1c0.8-0.5,1.8-0.7,2.8-0.7c1,0,1.9,0.2,2.6,0.7c0.8,0.4,1.3,1,1.7,1.6v-2.1
		h1.9v17h-1.9v-7.6c-0.4,0.6-0.9,1.2-1.7,1.6c-0.8,0.4-1.6,0.7-2.6,0.7s-1.9-0.3-2.8-0.8c-0.8-0.5-1.5-1.2-2-2.1
		c-0.5-0.9-0.7-1.9-0.7-3.1C136.6,91.5,136.9,90.5,137.4,89.6z M145.9,90.4c-0.4-0.6-0.8-1.1-1.4-1.5s-1.3-0.5-2-0.5
		c-0.7,0-1.4,0.2-2,0.5c-0.6,0.3-1.1,0.8-1.4,1.5c-0.4,0.6-0.5,1.4-0.5,2.3c0,0.9,0.2,1.7,0.5,2.3c0.4,0.7,0.8,1.2,1.4,1.5
		c0.6,0.3,1.2,0.5,2,0.5c0.7,0,1.4-0.2,2-0.5c0.6-0.3,1.1-0.8,1.4-1.5c0.4-0.7,0.5-1.4,0.5-2.3S146.2,91.1,145.9,90.4z"/>
	<path class="st0" d="M161.8,86.9v11.5h-1.9v-1.7c-0.4,0.6-0.9,1-1.5,1.4s-1.4,0.5-2.2,0.5c-0.9,0-1.7-0.2-2.4-0.6
		c-0.7-0.4-1.3-0.9-1.7-1.7c-0.4-0.7-0.6-1.6-0.6-2.7v-6.8h1.9v6.5c0,1.1,0.3,2,0.9,2.6c0.6,0.6,1.4,0.9,2.4,0.9
		c1,0,1.8-0.3,2.4-0.9s0.9-1.5,0.9-2.8v-6.3H161.8z"/>
	<path class="st0" d="M175.5,93.4h-9.2c0.1,1.1,0.5,2,1.2,2.7c0.7,0.6,1.6,1,2.6,1c0.8,0,1.5-0.2,2.1-0.6c0.6-0.4,0.9-0.9,1.2-1.5
		h2.1c-0.3,1.1-0.9,2-1.9,2.7c-0.9,0.7-2.1,1-3.4,1c-1.1,0-2.1-0.2-2.9-0.7c-0.9-0.5-1.5-1.2-2-2.1s-0.7-2-0.7-3.1s0.2-2.2,0.7-3.1
		c0.5-0.9,1.1-1.6,2-2.1c0.9-0.5,1.9-0.7,3-0.7c1.1,0,2.1,0.2,2.9,0.7c0.8,0.5,1.5,1.1,1.9,2c0.5,0.8,0.7,1.8,0.7,2.8
		C175.5,92.6,175.5,93,175.5,93.4z M173.1,90c-0.3-0.5-0.8-0.9-1.3-1.2s-1.2-0.4-1.8-0.4c-1,0-1.8,0.3-2.5,0.9
		c-0.7,0.6-1.1,1.5-1.2,2.6h7.3C173.6,91.1,173.4,90.5,173.1,90z"/>
	<path class="st0" d="M180.4,88.5v6.8c0,0.6,0.1,1,0.4,1.2c0.2,0.2,0.7,0.3,1.2,0.3h1.4v1.6h-1.7c-1.1,0-1.9-0.2-2.4-0.7
		c-0.5-0.5-0.8-1.3-0.8-2.4v-6.8H177v-1.6h1.5V84h1.9v2.9h3v1.6H180.4z"/>
	<path class="st0" d="M196.2,93.4H187c0.1,1.1,0.5,2,1.2,2.7s1.6,1,2.6,1c0.8,0,1.5-0.2,2.1-0.6c0.6-0.4,0.9-0.9,1.2-1.5h2.1
		c-0.3,1.1-0.9,2-1.9,2.7c-0.9,0.7-2.1,1-3.4,1c-1.1,0-2.1-0.2-2.9-0.7c-0.9-0.5-1.5-1.2-2-2.1c-0.5-0.9-0.7-2-0.7-3.1
		s0.2-2.2,0.7-3.1c0.5-0.9,1.1-1.6,2-2.1s1.9-0.7,3-0.7c1.1,0,2.1,0.2,2.9,0.7c0.8,0.5,1.5,1.1,1.9,2c0.5,0.8,0.7,1.8,0.7,2.8
		C196.2,92.6,196.2,93,196.2,93.4z M193.8,90c-0.3-0.5-0.8-0.9-1.3-1.2s-1.2-0.4-1.8-0.4c-1,0-1.8,0.3-2.5,0.9
		c-0.7,0.6-1.1,1.5-1.2,2.6h7.3C194.3,91.1,194.1,90.5,193.8,90z"/>
	<path class="st0" d="M200.5,98.2c-0.7-0.3-1.3-0.7-1.7-1.3c-0.4-0.5-0.6-1.2-0.7-1.9h2c0.1,0.6,0.3,1,0.8,1.4
		c0.5,0.4,1.1,0.5,1.9,0.5c0.7,0,1.3-0.2,1.7-0.5c0.4-0.3,0.6-0.7,0.6-1.2c0-0.5-0.2-0.9-0.7-1.1c-0.4-0.2-1.1-0.5-2.1-0.7
		c-0.9-0.2-1.6-0.5-2.1-0.7c-0.5-0.2-1-0.6-1.4-1c-0.4-0.5-0.6-1.1-0.6-1.8c0-0.6,0.2-1.1,0.5-1.6c0.4-0.5,0.8-0.9,1.5-1.2
		s1.4-0.4,2.2-0.4c1.3,0,2.3,0.3,3.1,1s1.2,1.5,1.3,2.6H205c0-0.6-0.3-1.1-0.7-1.5c-0.4-0.4-1-0.5-1.8-0.5c-0.7,0-1.2,0.1-1.6,0.4
		c-0.4,0.3-0.6,0.7-0.6,1.2c0,0.4,0.1,0.7,0.4,0.9c0.2,0.2,0.6,0.4,0.9,0.6c0.4,0.1,0.9,0.3,1.5,0.5c0.8,0.2,1.5,0.4,2,0.7
		c0.5,0.2,1,0.5,1.3,1c0.4,0.4,0.6,1,0.6,1.7c0,0.6-0.2,1.2-0.5,1.7c-0.4,0.5-0.8,0.9-1.5,1.2s-1.4,0.4-2.2,0.4
		C202,98.7,201.2,98.5,200.5,98.2z"/>
</g>
</svg>
